<svg xmlns="http://www.w3.org/2000/svg" width="1707" height="693" viewBox="0 0 1280 520" fill="none">
<defs><marker id="arrow" viewBox="0 0 10 10" refX="9" refY="5" markerWidth="8" markerHeight="8" orient="auto-start-reverse"><path d="M 0 0 L 10 5 L 0 10 z" fill="#1c75bc"/></marker></defs>
<style>text{font-family:Arial,sans-serif;fill:#12324a} .t{font-size:28px;font-weight:700} .s{font-size:20px} .box{fill:#f7fbff;stroke:#1c75bc;stroke-width:3;rx:24} .line{stroke:#1c75bc;stroke-width:4;stroke-linecap:round} .soft{fill:#eaf4fb;stroke:#1c75bc;stroke-width:3;rx:20}</style>

<circle cx="640" cy="260" r="90" class="soft"/>
<text x="640" y="250" text-anchor="middle" class="t">Productive</text>
<text x="640" y="286" text-anchor="middle" class="t">Liquidity</text>
<rect x="120" y="90" width="250" height="110" class="box"/>
<text x="245" y="145" text-anchor="middle" class="t">Usage Captures Value</text>
<text x="245" y="175" text-anchor="middle" class="s">fees from real activity</text>
<rect x="910" y="90" width="250" height="110" class="box"/>
<text x="1035" y="145" text-anchor="middle" class="t">Treasury Deploys</text>
<text x="1035" y="175" text-anchor="middle" class="s">capital into markets</text>
<rect x="910" y="320" width="250" height="110" class="box"/>
<text x="1035" y="375" text-anchor="middle" class="t">Ecosystem Scales</text>
<text x="1035" y="405" text-anchor="middle" class="s">new apps and demand</text>
<rect x="120" y="320" width="250" height="110" class="box"/>
<text x="245" y="375" text-anchor="middle" class="t">Capital Compounds</text>
<text x="245" y="405" text-anchor="middle" class="s">stronger backing and depth</text>
<path d="M370 145H500" class="line" marker-end="url(#arrow)"/>
<path d="M730 145H910" class="line" marker-end="url(#arrow)"/>
<path d="M1035 200V320" class="line" marker-end="url(#arrow)"/>
<path d="M910 375H780" class="line" marker-end="url(#arrow)"/>
<path d="M500 375H370" class="line" marker-end="url(#arrow)"/>
<path d="M245 320V200" class="line" marker-end="url(#arrow)"/>

</svg>